@startuml

entity "User" {
  * id: number
  --
  name: varchar
  surname: varchar
  email: varchar
  age: number
}

entity "Role" {
  * id: number
  --
  name: varchar
  description: varchar
  permissions: json
  is_hidden: boolean
}

entity "Personal Documents" {
  * id: number
  --
  doc_name: varchar
  description: varchar
  series: number
  number: number
}

entity "UserRole" {
  user_id: number
  role_id: number
}

entity "UserDocs" {
  user_id: number
  doc_id: number
}

User ||--o{ UserRole
Role ||--o{ UserRole

User ||--o{ UserDocs
"Personal Documents" ||--o{ UserDocs

@enduml